<?xml version="1.0" encoding="utf-8"?>
<!-- Generator: Adobe Illustrator 26.0.1, SVG Export Plug-In . SVG Version: 6.00 Build 0)  -->
<!DOCTYPE svg PUBLIC "-//W3C//DTD SVG 1.1//EN" "http://www.w3.org/Graphics/SVG/1.1/DTD/svg11.dtd" [
	<!ENTITY ns_extend "http://ns.adobe.com/Extensibility/1.0/">
	<!ENTITY ns_ai "http://ns.adobe.com/AdobeIllustrator/10.0/">
	<!ENTITY ns_graphs "http://ns.adobe.com/Graphs/1.0/">
	<!ENTITY ns_vars "http://ns.adobe.com/Variables/1.0/">
	<!ENTITY ns_imrep "http://ns.adobe.com/ImageReplacement/1.0/">
	<!ENTITY ns_sfw "http://ns.adobe.com/SaveForWeb/1.0/">
	<!ENTITY ns_custom "http://ns.adobe.com/GenericCustomNamespace/1.0/">
	<!ENTITY ns_adobe_xpath "http://ns.adobe.com/XPath/1.0/">
]>
<svg version="1.1" id="Livello_1" xmlns:x="&ns_extend;" xmlns:i="&ns_ai;" xmlns:graph="&ns_graphs;"
	 xmlns="http://www.w3.org/2000/svg" xmlns:xlink="http://www.w3.org/1999/xlink" x="0px" y="0px" viewBox="0 0 48 48"
	 style="enable-background:new 0 0 48 48;" xml:space="preserve">
<style type="text/css">
	.st0{fill:none;}
	.st1{fill:#303134;stroke:#303134;stroke-miterlimit:10;enable-background:new    ;}
	.st2{fill:#202124;}
</style>
<metadata>
	<sfw  xmlns="&ns_sfw;">
		<slices></slices>
		<sliceSourceBounds  bottomLeftOrigin="true" height="48" width="48" x="0" y="0"></sliceSourceBounds>
	</sfw>
</metadata>
<g>
	<rect class="st0" width="48" height="48"/>
</g>
<g>
	<path class="st1" d="M25.2,28.5c-0.4,1.8-1.9,3.9-4.8,4.6c5.8,4.7,11.3,0.4,11.1-4.6c0-4.1-5.9-6.4-6.5-10.2
		C23.2,22.9,25.8,25.7,25.2,28.5z"/>
	<path class="st2" d="M39,23.1c-3.1-8.2-14.3-8.6-11.6-20.5c0.2-0.9-0.7-1.6-1.5-1.1c-7.3,4.3-12.5,12.9-8.2,24.1
		c0.4,0.9-0.7,1.8-1.5,1.2c-3.6-2.7-4-6.7-3.7-9.5c0.1-1-1.2-1.5-1.8-0.7C9.4,18.7,8,22.1,8,27.1c0.8,11.2,10.2,14.6,13.6,15.1
		c4.9,0.6,10.1-0.3,13.9-3.7C39.7,34.6,41.2,28.5,39,23.1z M20.4,33.2c2.9-0.7,4.4-2.8,4.8-4.6c0.7-2.9-1.9-5.7-0.2-10.2
		c0.7,3.7,6.5,6.1,6.5,10.2C31.7,33.6,26.2,37.9,20.4,33.2z"/>
</g>
</svg>
